<svg id="Layer_1" data-name="Layer 1" xmlns="http://www.w3.org/2000/svg" viewBox="0 0 1024 256"><defs><style>.cls-1{fill:#6d7278;}</style></defs><path class="cls-1" d="M67.57,100.37A48.25,48.25,0,0,1,84.88,88.31a55.61,55.61,0,0,1,20.29-4.48,18.67,18.67,0,0,1,13.89,4.48,13.88,13.88,0,0,1,4.22,10.53,15,15,0,0,1-4.22,10.53,13.64,13.64,0,0,1-10.53,4.53c-17.34,1.53-41.4,18.81-41.4,42.29v53.29a15.48,15.48,0,0,1-15.06,15,13.64,13.64,0,0,1-10.75-4.64,14.84,14.84,0,0,1-4.5-10.53V98.2a14.84,14.84,0,0,1,4.5-10.53,20,20,0,0,1,11.31-3.78,15.34,15.34,0,0,1,15,15Z"/><path class="cls-1" d="M250.15,149.27a14.55,14.55,0,0,1-3.75,9.83,17,17,0,0,1-10.53,4.51H147a28.61,28.61,0,0,0,9.64,18.22,40.17,40.17,0,0,0,26.34,12.7,39.08,39.08,0,0,0,29.34-6.78,15.35,15.35,0,0,1,11.31-4.53,12.91,12.91,0,0,1,9.75,3.78,12.25,12.25,0,0,1,.75,17.31l0,0c-.22.25-.47.47-.72.72a68,68,0,0,1-48.87,18.06,63.87,63.87,0,0,1-48.82-21.06,74.15,74.15,0,0,1-20.29-49.74,67.59,67.59,0,0,1,20.29-49.68,62.8,62.8,0,0,1,47.4-20.31,61.13,61.13,0,0,1,46.51,18.84,68.82,68.82,0,0,1,21.15,46.51v1.48Zm-67-39.87a39.48,39.48,0,0,0-25.37,9.8,36.67,36.67,0,0,0-12,19.45h79a34.41,34.41,0,0,0-13.56-18.78,48.06,48.06,0,0,0-27.78-10.58"/><path class="cls-1" d="M391.72,208a15.47,15.47,0,0,1-15,15.06A16.24,16.24,0,0,1,361.63,211,64.54,64.54,0,0,1,323.2,223a65.45,65.45,0,0,1-48.15-20.31A67.05,67.05,0,0,1,255.46,153a71.53,71.53,0,0,1,19.59-49.65A66.27,66.27,0,0,1,323.2,82.22a62.07,62.07,0,0,1,37.59,12.06V41.68a13.7,13.7,0,0,1,4.53-10.53A15,15,0,0,1,376,26.62a13.68,13.68,0,0,1,10.53,4.53,14.87,14.87,0,0,1,4.53,10.53V208Zm-67.66-15.06a33.35,33.35,0,0,0,26.31-12,40,40,0,0,0,0-55.57,36.05,36.05,0,0,0-26.31-12.17,32.33,32.33,0,0,0-26.34,12.06,40,40,0,0,0,0,55.57,34.71,34.71,0,0,0,26.34,12"/><path class="cls-1" d="M436.2,41.68v6.06a15.29,15.29,0,0,1-4.64,11.45A12.9,12.9,0,0,1,421,62.94a13.52,13.52,0,0,1-10.5-4.47A15.12,15.12,0,0,1,406,47.19V41.63a15.49,15.49,0,0,1,15-15.06,13.9,13.9,0,0,1,10.53,4.58,13.58,13.58,0,0,1,4.61,10.53M410.81,87.61a14.69,14.69,0,0,1,10.53-4.53,13.49,13.49,0,0,1,10.53,4.53,15.24,15.24,0,0,1,4.3,11.12V208.78a12.65,12.65,0,0,1-4.61,10.54,14.81,14.81,0,0,1-10.5,4.52,13.59,13.59,0,0,1-10.53-4.52A14.69,14.69,0,0,1,406,208.78V98.84a15,15,0,0,1,4.53-11.12"/><path class="cls-1" d="M542.93,98.14a14.73,14.73,0,0,1,6,9,19.88,19.88,0,0,1-1.5,11.28,15,15,0,0,1-9,6,15.57,15.57,0,0,1-11.3-2.25c-10.54-6.75-18.76-10.51-25.57-10.51a24.33,24.33,0,0,0-16.67,5.23c-3,2.28-4.5,3.78-4.5,5.28a5.57,5.57,0,0,0,.75,3.78,10.5,10.5,0,0,0,3,2.25A45.1,45.1,0,0,0,504.47,135h0a105,105,0,0,1,27.06,8.33,38.91,38.91,0,0,1,7,67.57l-.24.15a60.58,60.58,0,0,1-36.12,11.28c-17.31,0-33.84-6.75-49.65-19.45a16,16,0,0,1-5.28-9.81,14.45,14.45,0,0,1,23.34-12.67,43.7,43.7,0,0,0,30.84,12,32.23,32.23,0,0,0,18.81-5.28c3-3,5.28-5.25,5.28-7.53s0-3-.75-3.75c0-.78-1.53-2.25-3.78-3a56,56,0,0,0-22.59-8h0a78.31,78.31,0,0,1-25.56-8.33,46,46,0,0,1-18.06-15.76,35.06,35.06,0,0,1-4.47-17.31,36.93,36.93,0,0,1,16.53-30.87,60.68,60.68,0,0,1,34.59-10.53c12.67.78,26.34,6,41.37,15.81"/><path class="cls-1" d="M582.16,155.49q0-35.07,19.54-54.61t54.41-19.53q35.75,0,55.09,19.19t19.34,53.78q0,25.1-8.45,41.17a60.15,60.15,0,0,1-24.42,25q-16,8.94-39.81,8.94-24.23,0-40.09-7.71T592,197.3Q582.16,180.59,582.16,155.49Zm44.25.19q0,21.69,8.06,31.16t21.93,9.48q14.26,0,22.08-9.28t7.81-33.31q0-20.22-8.16-29.55T656,114.85q-13.38,0-21.49,9.48T626.41,155.68Z"/><path class="cls-1" d="M749,32.13h86l33.19,118.56L901.18,32.13h86V227H933.6V78.38L892.31,227H843.8L802.59,78.38V227H749Z"/><rect class="cls-1" x="583.86" y="32.52" width="144.48" height="36.12"/></svg>